<svg width="24" height="24" viewBox="0 0 24 24" fill="none" xmlns="http://www.w3.org/2000/svg">
<path fill-rule="evenodd" clip-rule="evenodd" d="M11.1671 2.80664L10.3359 4.26069L9.50586 5.71358H11.1671L11.9972 4.26069L12.8284 2.80664H11.1671Z" fill="#2D1F87"/>
<path fill-rule="evenodd" clip-rule="evenodd" d="M12 4.26069L12.8301 2.80664L13.6613 4.26069H12Z" fill="#2CA7E1"/>
<path fill-rule="evenodd" clip-rule="evenodd" d="M11.168 5.71266L11.998 4.25977L12.8292 5.71266H11.168Z" fill="#07084D"/>
<path fill-rule="evenodd" clip-rule="evenodd" d="M13.6613 4.25977L12.8301 5.71266L12 4.25977H13.6613Z" fill="#2D1F87"/>
<path fill-rule="evenodd" clip-rule="evenodd" d="M12.8281 5.71266L13.6593 4.25977L14.4906 5.71266H12.8281Z" fill="#634D9D"/>
<path fill-rule="evenodd" clip-rule="evenodd" d="M14.4906 5.71289L13.6593 7.16694L12.8281 5.71289H14.4906Z" fill="#07084D"/>
<path fill-rule="evenodd" clip-rule="evenodd" d="M14.4933 5.71289L13.6621 7.16694L14.4933 8.62099L15.3245 7.16694L16.1546 5.71289H14.4933Z" fill="#2D1F87"/>
<path fill-rule="evenodd" clip-rule="evenodd" d="M16.1543 5.71289L15.3242 7.16694L16.1543 8.62099L16.9855 7.16694L16.1543 5.71289Z" fill="#2CA7E1"/>
<path fill-rule="evenodd" clip-rule="evenodd" d="M18.6476 7.16797L17.8175 8.62202L16.9863 7.16797H18.6476Z" fill="#2D1F87"/>
<path fill-rule="evenodd" clip-rule="evenodd" d="M15.3234 7.16797L14.4922 8.62202L15.3234 10.0749L16.1546 8.62202L15.3234 7.16797Z" fill="#634D9D"/>
<path fill-rule="evenodd" clip-rule="evenodd" d="M15.3242 10.0751L16.1554 8.62109L16.9855 10.0751H15.3242Z" fill="#2D1F87"/>
<path fill-rule="evenodd" clip-rule="evenodd" d="M16.9856 7.16797L16.1544 8.62202L16.9856 10.0749L17.8169 8.62202L16.9856 7.16797Z" fill="#634D9D"/>
<path fill-rule="evenodd" clip-rule="evenodd" d="M18.6443 7.16797L17.8142 8.62202L18.6443 10.0749L19.4755 8.62202L18.6443 7.16797Z" fill="#634D9D"/>
<path fill-rule="evenodd" clip-rule="evenodd" d="M16.9855 10.0742L16.1543 11.5271L15.3242 10.0742H16.9855Z" fill="#07084D"/>
<path fill-rule="evenodd" clip-rule="evenodd" d="M19.4757 8.62109L18.6445 10.0751L19.4757 11.528L20.307 10.0751L19.4757 8.62109Z" fill="#2CA7E1"/>
<path fill-rule="evenodd" clip-rule="evenodd" d="M17.8169 8.62109L16.9856 10.0751L16.1544 11.528L16.9856 12.9832L17.8169 11.528L18.6469 10.0751L17.8169 8.62109Z" fill="#2D1F87"/>
<path fill-rule="evenodd" clip-rule="evenodd" d="M18.6476 10.0742L17.8175 11.5271L16.9863 12.9823H18.6476L19.4788 11.5271L18.6476 10.0742Z" fill="#634D9D"/>
<path fill-rule="evenodd" clip-rule="evenodd" d="M20.3078 10.0742L19.4766 11.5271L20.3078 12.9823L21.1378 11.5271L20.3078 10.0742Z" fill="#634D9D"/>
<path fill-rule="evenodd" clip-rule="evenodd" d="M20.3066 12.9845L21.1367 11.5293L21.9679 12.9845H20.3066Z" fill="#2CA7E1"/>
<path fill-rule="evenodd" clip-rule="evenodd" d="M16.9822 12.9831L16.1509 11.5279L15.3209 10.075L14.4897 8.62099L13.6585 7.16694L12.8272 5.71289H11.1671H9.50586L10.3359 7.16694L11.1671 8.62099L11.9972 10.075L12.8272 11.5279L13.6585 12.9831L14.4897 14.436L15.3209 15.8901L16.1509 17.3441L16.9822 15.8901L17.8134 14.436L16.9822 12.9831Z" fill="#2CA7E1"/>
<path fill-rule="evenodd" clip-rule="evenodd" d="M18.6476 12.9844L17.8175 14.4373L16.9863 12.9844H18.6476Z" fill="#2D1F87"/>
<path fill-rule="evenodd" clip-rule="evenodd" d="M20.307 12.9845L19.4757 11.5293L18.6445 12.9845L19.4757 14.4374H21.137L20.307 12.9845Z" fill="#2D1F87"/>
<path fill-rule="evenodd" clip-rule="evenodd" d="M21.9679 12.9844H20.3066L21.1367 14.4373H22.798L21.9679 12.9844Z" fill="#634D9D"/>
<path fill-rule="evenodd" clip-rule="evenodd" d="M12.8293 17.3451L11.9992 15.8911L11.1692 14.4371L10.338 12.9842L9.5079 11.529L8.67668 10.0761L7.84547 8.62202L7.01541 7.16797H5.35298L4.52176 8.62202L3.69171 10.0761L2.86049 11.529L2.03043 12.9842L1.19922 14.4371H2.86049H4.52176L5.35298 12.9842L6.18419 14.4371L7.01541 15.8911L7.84547 17.3451L7.01541 18.7992L6.18419 20.2532H7.84547H9.50674L10.338 18.7992L11.1692 20.2532H12.8293L13.6605 18.7992L12.8293 17.3451Z" fill="#07084D"/>
<path fill-rule="evenodd" clip-rule="evenodd" d="M16.9844 18.7982L16.1532 17.3441L15.3231 15.8901L14.4919 14.436L13.6607 12.9831L12.8295 11.5279L11.9994 10.075L11.1694 8.62099L10.3382 7.16694L9.50811 5.71289H7.84568L7.01562 7.16694L7.84568 8.62099L8.6769 10.075L9.50811 11.5279L10.3382 12.9831L11.1694 14.436L11.9994 15.8901L12.8295 17.3441L13.6607 18.7982L14.4919 20.2522H16.1532H17.8156L16.9844 18.7982Z" fill="#2D1F87"/>
</svg>
